<svg width="280" height="250" viewBox="0 0 280 250" fill="none" xmlns="http://www.w3.org/2000/svg">
  <rect width="280" height="250" rx="20" fill="#FEE265" fill-opacity="0.3"/>
  <g clip-path="url(#clip0_1_1621)">
  <path d="M111.039 25L156.983 59.0684L110.343 100.368C109.808 100.244 109.341 99.95 108.991 99.5555C108.601 99.1008 108.359 98.5133 108.359 97.8652V27.5633C108.359 26.8066 108.689 26.1266 109.213 25.6598C109.667 25.2492 110.267 24.9996 110.923 24.9996H111.039V25Z" fill="#FCA863"/>
  <path d="M219.209 27.5633V97.8652C219.209 98.5129 218.967 99.1008 218.577 99.5555C218.227 99.95 217.76 100.244 217.225 100.368L170.585 59.0684L216.528 25H216.645C217.305 25 217.901 25.2496 218.355 25.6602C218.878 26.127 219.209 26.807 219.209 27.5633Z" fill="#FCA863"/>
  <path d="M111.039 25L156.983 59.0683L148.114 66.9234L108.359 37.4426V27.5633C108.359 26.8066 108.689 26.1266 109.213 25.6598C109.667 25.2492 110.267 24.9996 110.923 24.9996H111.039V25Z" fill="#FC9744"/>
  <path d="M219.209 27.5633V97.8652C219.209 98.5129 218.967 99.1008 218.577 99.5555C218.227 99.95 217.76 100.244 217.225 100.368L204.143 88.7828V58.2879C204.143 54.2879 199.588 51.9941 196.372 54.3766L179.454 66.9238L170.585 59.0688L216.529 25H216.645C217.306 25 217.901 25.2496 218.356 25.6602C218.879 26.127 219.209 26.807 219.209 27.5633Z" fill="#FC9744"/>
  <path d="M218.575 99.5523C218.106 100.091 217.414 100.432 216.644 100.432H110.924C110.155 100.432 109.462 100.091 108.993 99.5523L163.784 51.0344L218.575 99.5523Z" fill="#FB8627"/>
  <path d="M180.691 66.0058L172.781 71.8711C170.158 73.8113 167.046 74.8387 163.784 74.8387C160.522 74.8387 157.41 73.8113 154.787 71.8711L146.877 66.0058L163.784 51.034L180.691 66.0058Z" fill="#FB7722"/>
  <path d="M218.355 25.657L166.839 63.8567C165.025 65.2024 162.544 65.2024 160.729 63.8567L109.213 25.657C109.667 25.2492 110.267 25.0004 110.924 25.0004H216.645C217.301 25.0004 217.901 25.2492 218.355 25.657Z" fill="#FEE265"/>
  <path d="M157.697 85.0067H169.872" stroke="black" stroke-width="15" stroke-miterlimit="10" stroke-linecap="round" stroke-linejoin="round"/>
  <path d="M68.6449 74.4004L114.589 108.469L67.9488 149.769C67.4136 149.644 66.9429 149.35 66.5968 148.956C66.2023 148.501 65.9652 147.914 65.9652 147.266V76.9637C65.9652 76.2031 66.2914 75.527 66.8183 75.0563C67.2691 74.65 67.8687 74.4004 68.5285 74.4004H68.6449Z" fill="#FCA863"/>
  <path d="M176.81 76.9637V147.266C176.81 147.914 176.573 148.501 176.178 148.956C175.832 149.35 175.361 149.644 174.826 149.769L128.186 108.469L174.13 74.4004H174.247C174.907 74.4004 175.506 74.65 175.961 75.0563C176.484 75.5273 176.81 76.2031 176.81 76.9637Z" fill="#FCA863"/>
  <path d="M68.6449 74.4004L114.589 108.469L105.72 116.324L65.9652 86.843V76.9637C65.9652 76.2031 66.2914 75.527 66.8183 75.0563C67.2691 74.65 67.8687 74.4004 68.5285 74.4004H68.6449Z" fill="#FC9744"/>
  <path d="M176.81 76.9637V147.266C176.81 147.914 176.573 148.501 176.178 148.956C175.832 149.35 175.361 149.644 174.826 149.769L161.744 138.183V107.688C161.744 103.688 157.188 101.395 153.977 103.777L137.055 116.324L128.186 108.469L174.13 74.4008H174.247C174.907 74.4008 175.506 74.6504 175.961 75.0566C176.484 75.5274 176.81 76.2031 176.81 76.9637Z" fill="#FC9744"/>
  <path d="M176.179 148.952C175.71 149.491 175.018 149.832 174.248 149.832H68.5277C67.7582 149.832 67.066 149.491 66.5964 148.952L121.388 100.434L176.179 148.952Z" fill="#FB8627"/>
  <path d="M138.295 115.405L130.385 121.271C127.762 123.211 124.65 124.238 121.388 124.238C118.126 124.238 115.014 123.211 112.391 121.271L104.48 115.405L121.388 100.434L138.295 115.405Z" fill="#FB7722"/>
  <path d="M175.959 75.0566L124.443 113.256C122.628 114.602 120.147 114.602 118.332 113.256L66.8168 75.0566C67.2707 74.6488 67.8707 74.4 68.5273 74.4H174.248C174.905 74.4 175.505 74.6488 175.959 75.0566Z" fill="#FEE265"/>
  <path d="M115.301 134.406H127.475" stroke="black" stroke-width="15" stroke-miterlimit="10" stroke-linecap="round" stroke-linejoin="round"/>
  <path d="M87.5668 123.801L133.507 157.865L86.8664 199.169C86.3312 199.04 85.8645 198.751 85.5145 198.356C85.1242 197.902 84.8828 197.314 84.8828 196.666V126.364C84.8828 125.604 85.2129 124.927 85.7359 124.457C86.1906 124.05 86.7863 123.801 87.4461 123.801H87.5668Z" fill="#FCA863"/>
  <path d="M195.732 126.364V196.666C195.732 197.314 195.49 197.901 195.1 198.356C194.75 198.75 194.283 199.04 193.748 199.169L147.108 157.865L193.047 123.801H193.168C193.824 123.801 194.423 124.05 194.878 124.457C195.402 124.928 195.732 125.604 195.732 126.364Z" fill="#FCA863"/>
  <path d="M87.5668 123.801L133.507 157.865L124.637 165.72L84.8828 136.243V126.364C84.8828 125.604 85.2129 124.927 85.7359 124.457C86.1906 124.05 86.7863 123.801 87.4461 123.801H87.5668Z" fill="#FC9744"/>
  <path d="M195.732 126.364V196.666C195.732 197.314 195.49 197.901 195.1 198.356C194.75 198.75 194.283 199.04 193.748 199.169L180.666 187.583V157.088C180.666 153.088 176.11 150.795 172.895 153.177L155.977 165.72L147.108 157.865L193.048 123.801H193.168C193.824 123.801 194.424 124.05 194.878 124.457C195.402 124.928 195.732 125.604 195.732 126.364Z" fill="#FC9744"/>
  <path d="M195.098 198.352C194.629 198.89 193.937 199.231 193.167 199.231H87.4469C86.6773 199.231 85.9852 198.89 85.5156 198.352L140.307 149.833L195.098 198.352Z" fill="#FB8627"/>
  <path d="M157.214 164.805L149.304 170.67C146.681 172.611 143.569 173.638 140.307 173.638C137.045 173.638 133.933 172.611 131.31 170.67L123.4 164.805L140.307 149.833L157.214 164.805Z" fill="#FB7722"/>
  <path d="M194.878 124.456L143.363 162.656C141.548 164.002 139.067 164.002 137.252 162.656L85.7363 124.456C86.1902 124.048 86.7902 123.8 87.4469 123.8H193.167C193.824 123.8 194.424 124.048 194.878 124.456Z" fill="#FEE265"/>
  <path d="M146.394 186.824H134.22C132.553 186.824 131.202 185.473 131.202 183.806C131.202 182.139 132.553 180.788 134.22 180.788H146.394C148.062 180.788 149.412 182.139 149.412 183.806C149.412 185.473 148.061 186.824 146.394 186.824Z" fill="#FEE265"/>
  <path d="M214.316 199.336V209.759C214.316 210.871 213.416 211.771 212.304 211.771H68.3101C67.1988 211.771 66.298 210.871 66.298 209.759V199.336C66.298 197.289 64.6386 195.629 62.5917 195.629H56.7753C54.7285 195.629 53.0691 197.289 53.0691 199.336V221.294C53.0691 223.341 54.7285 225 56.7753 225H223.839C225.886 225 227.545 223.341 227.545 221.294V199.336C227.545 197.289 225.886 195.629 223.839 195.629H218.022C215.976 195.629 214.316 197.289 214.316 199.336Z" fill="#FB4A59"/>
  <path d="M233.907 100.852L215.028 119.731C214.009 120.75 212.36 120.75 211.341 119.731L192.457 100.852C190.817 99.2113 191.981 96.402 194.305 96.402H199.076C200.188 96.402 201.089 95.5012 201.089 94.3898V82.9801C201.089 81.5402 202.256 80.3734 203.695 80.3734H222.669C224.111 80.3734 225.275 81.5426 225.275 82.9801V94.3898C225.275 95.5012 226.176 96.402 227.287 96.402H232.063C234.388 96.402 235.547 99.2113 233.907 100.852Z" fill="#27D1B3"/>
  <path d="M233.909 100.851L215.027 119.732C214.009 120.75 212.359 120.75 211.341 119.732L206.923 115.314L221.382 100.851C223.023 99.2133 221.864 96.4004 219.539 96.4004H212.75V82.9797C212.75 81.543 211.587 80.3719 210.146 80.3719H222.669C224.11 80.3719 225.277 81.543 225.277 82.9797V94.3883C225.277 95.4996 226.178 96.4004 227.289 96.4004H232.066C234.387 96.4004 235.546 99.2133 233.909 100.851Z" fill="#20B69F"/>
  <path d="M87.541 66.684L68.6617 85.5633C67.6433 86.5817 65.9937 86.5817 64.9753 85.5633L46.0914 66.684C44.4507 65.0434 45.6152 62.234 47.9394 62.234H52.7109C53.8222 62.234 54.723 61.3332 54.723 60.2219V48.8121C54.723 47.3723 55.8902 46.2055 57.3296 46.2055H76.3031C77.7457 46.2055 78.9097 47.3746 78.9097 48.8121V60.2219C78.9097 61.3332 79.8105 62.234 80.9218 62.234H85.6976C88.0218 62.234 89.1816 65.0434 87.541 66.684Z" fill="#27D1B3"/>
  <path d="M87.5426 66.682L68.6613 85.5633C67.6433 86.5813 65.9929 86.5813 64.9754 85.5633L60.557 81.1449L75.0156 66.682C76.6574 65.0441 75.4984 62.2355 73.1726 62.2355H66.3836V48.8109C66.3836 47.3742 65.2207 46.2031 63.7801 46.2031H76.3031C77.7437 46.2031 78.9109 47.3742 78.9109 48.8109V60.2234C78.9109 61.3348 79.8117 62.2355 80.923 62.2355H85.6996C88.0215 62.2355 89.1804 65.0441 87.5426 66.682Z" fill="#20B69F"/>
  </g>
  <defs>
  <clipPath id="clip0_1_1621">
  <rect width="200" height="200" fill="white" transform="translate(40 25)"/>
  </clipPath>
  </defs>
  </svg>
  